<?xml version="1.0" encoding="utf-8"?>
<svg xmlns="http://www.w3.org/2000/svg" width="240" height="240" viewBox="0 0 240 240" fill="none">
<path fill-rule="evenodd" clip-rule="evenodd" d="M120 0C186.274 0 240 53.7258 240 120C240 186.274 186.274 240 120 240C53.7258 240 0 186.274 0 120C0 53.7258 53.7258 0 120 0ZM136 59.9996V60.0006L78 59.9996V180H102V144.001H136V144C159.196 144 178 125.196 178 102C178 78.8036 159.196 59.9996 136 59.9996ZM136 83.9996C145.941 83.9996 154 92.0586 154 102C154 111.941 145.941 120 136 120V120.001H102V84.0006H136V83.9996Z" fill="#FF6154"/>
</svg>